<svg width="22" height="22" viewBox="0 0 22 22" fill="none" xmlns="http://www.w3.org/2000/svg">
<g clip-path="url(#clip0_144_17)">
<path d="M11 2.21404e-06C8.43525 -0.00162436 5.95051 0.893032 3.97545 2.52928C2.00039 4.16553 0.659182 6.4405 0.183723 8.96083C-0.291735 11.4812 0.12845 14.0884 1.37162 16.3318C2.6148 18.5751 4.60281 20.3136 6.99191 21.2465C6.89566 20.3761 6.80766 19.0383 7.02904 18.0881C7.22979 17.2288 8.31879 12.6198 8.31879 12.6198C8.31879 12.6198 7.99016 11.9611 7.99016 10.9876C7.99016 9.45725 8.87704 8.316 9.98116 8.316C10.9189 8.316 11.3727 9.02 11.3727 9.86563C11.3727 10.8089 10.7718 12.2196 10.461 13.5273C10.2025 14.6218 11.011 15.5155 12.0904 15.5155C14.0457 15.5155 15.5485 13.453 15.5485 10.4775C15.5485 7.84438 13.6552 6.00325 10.9533 6.00325C7.82379 6.00325 5.98679 8.35038 5.98679 10.7759C5.98679 11.7219 6.35116 12.7353 6.80491 13.2866C6.84399 13.3282 6.87162 13.3792 6.88512 13.4346C6.89861 13.49 6.89751 13.548 6.88191 13.6029C6.79804 13.9494 6.61241 14.6974 6.57666 14.85C6.52854 15.0508 6.41716 15.0934 6.20816 14.9971C4.83316 14.3578 3.97516 12.3489 3.97516 10.7346C3.97516 7.2655 6.49691 4.07963 11.2434 4.07963C15.059 4.07963 18.0249 6.798 18.0249 10.4321C18.0249 14.223 15.6338 17.2741 12.3173 17.2741C11.2022 17.2741 10.1544 16.6953 9.79554 16.0105L9.11079 18.6258C8.86191 19.5814 8.19091 20.779 7.74266 21.5091C9.25512 21.9768 10.8507 22.1124 12.4204 21.9069C13.9901 21.7013 15.4969 21.1593 16.838 20.318C18.179 19.4766 19.3226 18.3557 20.1907 17.0319C21.0588 15.708 21.6309 14.2123 21.868 12.6471C22.105 11.0818 22.0014 9.48383 21.5642 7.96229C21.1271 6.44074 20.3666 5.03149 19.3348 3.8308C18.303 2.63011 17.0242 1.66628 15.5858 1.00515C14.1474 0.344014 12.5831 0.00115817 11 2.21404e-06Z" fill="black"/>
</g>
<defs>
<clipPath id="clip0_144_17">
<rect width="22" height="22" fill="white"/>
</clipPath>
</defs>
</svg>
