<svg width="200" height="200" viewBox="0 0 200 200" fill="none" xmlns="http://www.w3.org/2000/svg">
<rect x="1" y="1" width="198" height="198" rx="29" fill="#288CC9" stroke="#288CC9" stroke-width="2"/>
<path d="M85.328 163.312C83.648 163.312 82.264 162.984 81.176 162.328C80.088 161.656 79.288 160.72 78.776 159.52C78.264 158.32 78.008 156.912 78.008 155.296C78.008 153.376 78.336 151.808 78.992 150.592C79.664 149.376 80.544 148.496 81.632 147.952C82.72 147.408 83.928 147.136 85.256 147.136C86.232 147.136 87.128 147.256 87.944 147.496C88.776 147.736 89.584 148.088 90.368 148.552L89.264 150.592C88.016 149.84 86.728 149.464 85.4 149.464C83.848 149.464 82.704 149.968 81.968 150.976C81.248 151.968 80.888 153.36 80.888 155.152C80.888 156.992 81.288 158.424 82.088 159.448C82.888 160.456 84.04 160.96 85.544 160.96C86.312 160.96 86.992 160.864 87.584 160.672C88.176 160.464 88.784 160.176 89.408 159.808L90.488 161.776C89.624 162.288 88.784 162.672 87.968 162.928C87.168 163.184 86.288 163.312 85.328 163.312ZM96.9247 152.032C98.2367 152.032 99.2207 152.312 99.8767 152.872C100.533 153.432 100.861 154.328 100.861 155.56V163H98.6047L98.4127 162.112C97.8207 162.544 97.2127 162.848 96.5887 163.024C95.9807 163.216 95.3487 163.312 94.6927 163.312C94.0527 163.312 93.4847 163.192 92.9887 162.952C92.5087 162.712 92.1327 162.376 91.8607 161.944C91.5887 161.496 91.4527 160.984 91.4527 160.408C91.4527 159.544 91.7567 158.824 92.3647 158.248C92.9727 157.656 93.7887 157.216 94.8127 156.928C95.8367 156.64 96.9887 156.48 98.2687 156.448V156.04C98.2687 155.352 98.1407 154.856 97.8847 154.552C97.6287 154.248 97.1807 154.096 96.5407 154.096C95.4367 154.096 94.2527 154.504 92.9887 155.32L91.9327 153.664C92.7007 153.12 93.4927 152.712 94.3087 152.44C95.1247 152.168 95.9967 152.032 96.9247 152.032ZM94.1647 160.12C94.1647 160.504 94.2767 160.8 94.5007 161.008C94.7407 161.2 95.0847 161.296 95.5327 161.296C96.4287 161.296 97.3407 161.024 98.2687 160.48V158.176C96.9887 158.24 95.9807 158.44 95.2447 158.776C94.5247 159.096 94.1647 159.544 94.1647 160.12ZM109.536 152.032C109.984 152.032 110.448 152.104 110.928 152.248L110.496 154.888C110.24 154.792 110 154.72 109.776 154.672C109.552 154.624 109.304 154.6 109.032 154.6C108.568 154.6 108.128 154.704 107.712 154.912C107.312 155.12 106.912 155.512 106.512 156.088V163H103.92V152.368L106.512 152.128V153.64C106.896 153.112 107.344 152.712 107.856 152.44C108.384 152.168 108.944 152.032 109.536 152.032ZM116.426 163.312C115.45 163.312 114.57 163.192 113.786 162.952C113.018 162.712 112.298 162.352 111.626 161.872L112.73 160.12C113.866 160.936 115.074 161.344 116.354 161.344C116.978 161.344 117.45 161.24 117.77 161.032C118.106 160.824 118.274 160.528 118.274 160.144C118.274 159.92 118.21 159.728 118.082 159.568C117.97 159.392 117.754 159.224 117.434 159.064C117.114 158.904 116.658 158.744 116.066 158.584L115.346 158.392C114.21 158.088 113.386 157.688 112.874 157.192C112.362 156.696 112.106 156.04 112.106 155.224C112.106 154.6 112.282 154.048 112.634 153.568C112.986 153.088 113.474 152.712 114.098 152.44C114.738 152.168 115.458 152.032 116.258 152.032C117.778 152.032 119.194 152.416 120.506 153.184L119.498 154.912C118.826 154.56 118.258 154.32 117.794 154.192C117.33 154.064 116.834 154 116.306 154C115.81 154 115.426 154.096 115.154 154.288C114.882 154.48 114.746 154.736 114.746 155.056C114.746 155.248 114.794 155.416 114.89 155.56C114.986 155.688 115.154 155.808 115.394 155.92C115.634 156.016 115.978 156.12 116.426 156.232L117.194 156.424C118.49 156.776 119.426 157.232 120.002 157.792C120.594 158.336 120.89 159.04 120.89 159.904C120.89 160.56 120.722 161.144 120.386 161.656C120.05 162.168 119.546 162.576 118.874 162.88C118.202 163.168 117.386 163.312 116.426 163.312Z" fill="white"/>
<path d="M136.688 81.1875H133.102L123.878 60.4355C123.46 59.4967 122.78 58.699 121.918 58.1391C121.056 57.5792 120.051 57.2813 119.023 57.2812H79.9766C78.9491 57.2813 77.9436 57.5792 77.082 58.1391C76.2204 58.699 75.5397 59.4967 75.1223 60.4355L65.8984 81.1875H62.3125C61.608 81.1875 60.9324 81.4674 60.4342 81.9655C59.9361 82.4636 59.6562 83.1393 59.6562 83.8438C59.6562 84.5482 59.9361 85.2239 60.4342 85.722C60.9324 86.2201 61.608 86.5 62.3125 86.5H64.9688V113.062C64.9688 114.471 65.5285 115.823 66.5247 116.819C67.521 117.815 68.8723 118.375 70.2812 118.375H78.25C79.659 118.375 81.0102 117.815 82.0065 116.819C83.0028 115.823 83.5625 114.471 83.5625 113.062V107.75H115.438V113.062C115.438 114.471 115.997 115.823 116.993 116.819C117.99 117.815 119.341 118.375 120.75 118.375H128.719C130.128 118.375 131.479 117.815 132.475 116.819C133.472 115.823 134.031 114.471 134.031 113.062V86.5H136.688C137.392 86.5 138.068 86.2201 138.566 85.722C139.064 85.2239 139.344 84.5482 139.344 83.8438C139.344 83.1393 139.064 82.4636 138.566 81.9655C138.068 81.4674 137.392 81.1875 136.688 81.1875ZM83.5625 97.125H78.25C77.5455 97.125 76.8699 96.8451 76.3717 96.347C75.8736 95.8489 75.5938 95.1732 75.5938 94.4688C75.5938 93.7643 75.8736 93.0886 76.3717 92.5905C76.8699 92.0924 77.5455 91.8125 78.25 91.8125H83.5625C84.267 91.8125 84.9426 92.0924 85.4408 92.5905C85.9389 93.0886 86.2188 93.7643 86.2188 94.4688C86.2188 95.1732 85.9389 95.8489 85.4408 96.347C84.9426 96.8451 84.267 97.125 83.5625 97.125ZM115.438 97.125C114.733 97.125 114.057 96.8451 113.559 96.347C113.061 95.8489 112.781 95.1732 112.781 94.4688C112.781 93.7643 113.061 93.0886 113.559 92.5905C114.057 92.0924 114.733 91.8125 115.438 91.8125H120.75C121.454 91.8125 122.13 92.0924 122.628 92.5905C123.126 93.0886 123.406 93.7643 123.406 94.4688C123.406 95.1732 123.126 95.8489 122.628 96.347C122.13 96.8451 121.454 97.125 120.75 97.125H115.438Z" fill="white"/>
</svg>
