<svg width="200" height="200" viewBox="0 0 200 200" fill="none" xmlns="http://www.w3.org/2000/svg">
<rect x="1" y="1" width="198" height="198" rx="29" fill="white" stroke="#288CC9" stroke-width="2"/>
<path d="M92.184 154.24V161.896C91.176 162.392 90.232 162.752 89.352 162.976C88.472 163.2 87.512 163.312 86.472 163.312C84.728 163.312 83.304 162.968 82.2 162.28C81.096 161.592 80.288 160.656 79.776 159.472C79.264 158.272 79.008 156.872 79.008 155.272C79.008 153.4 79.344 151.856 80.016 150.64C80.704 149.424 81.616 148.536 82.752 147.976C83.888 147.416 85.16 147.136 86.568 147.136C88.536 147.136 90.28 147.616 91.8 148.576L90.648 150.592C89.448 149.824 88.152 149.44 86.76 149.44C85.08 149.44 83.84 149.944 83.04 150.952C82.256 151.96 81.864 153.36 81.864 155.152C81.864 157.056 82.232 158.504 82.968 159.496C83.72 160.472 84.928 160.96 86.592 160.96C87.568 160.96 88.52 160.792 89.448 160.456V156.496H85.752L86.064 154.24H92.184ZM99.5408 163.312C98.3888 163.312 97.4208 163.064 96.6367 162.568C95.8528 162.056 95.2608 161.376 94.8608 160.528C94.4768 159.664 94.2848 158.704 94.2848 157.648C94.2848 156.32 94.5328 155.24 95.0288 154.408C95.5408 153.576 96.2208 152.976 97.0688 152.608C97.9168 152.224 98.8688 152.032 99.9248 152.032C101.093 152.032 102.069 152.28 102.853 152.776C103.637 153.256 104.221 153.92 104.605 154.768C105.005 155.616 105.205 156.584 105.205 157.672C105.205 158.984 104.949 160.064 104.437 160.912C103.941 161.744 103.269 162.352 102.421 162.736C101.573 163.12 100.613 163.312 99.5408 163.312ZM99.7328 161.296C100.725 161.296 101.429 160.976 101.845 160.336C102.277 159.68 102.493 158.784 102.493 157.648C102.493 156.512 102.269 155.632 101.821 155.008C101.389 154.368 100.717 154.048 99.8047 154.048C98.7968 154.048 98.0688 154.36 97.6208 154.984C97.1888 155.608 96.9728 156.496 96.9728 157.648C96.9728 158.768 97.1968 159.656 97.6448 160.312C98.1088 160.968 98.8048 161.296 99.7328 161.296ZM107.592 163V146.488L110.184 146.224V163H107.592ZM122.79 146.224V163H120.51L120.342 162.208C119.206 162.944 118.094 163.312 117.006 163.312C115.566 163.312 114.462 162.848 113.694 161.92C112.942 160.976 112.566 159.648 112.566 157.936C112.566 156.64 112.814 155.552 113.31 154.672C113.822 153.776 114.494 153.112 115.326 152.68C116.158 152.248 117.078 152.032 118.086 152.032C118.758 152.032 119.462 152.136 120.198 152.344V146.488L122.79 146.224ZM115.278 157.912C115.278 160.136 116.086 161.248 117.702 161.248C118.502 161.248 119.334 160.992 120.198 160.48V154.264C119.638 154.072 119.038 153.976 118.398 153.976C117.79 153.976 117.246 154.12 116.766 154.408C116.302 154.696 115.934 155.136 115.662 155.728C115.406 156.32 115.278 157.048 115.278 157.912Z" fill="#288CC9"/>
<g clip-path="url(#clip0_46_483)">
<path d="M101.378 93.0496C99.8674 93.0538 98.4195 93.6558 97.3508 94.7239C96.2822 95.7921 95.6796 97.2397 95.6746 98.7506V110.41C95.6746 111.923 96.2755 113.373 97.3452 114.443C98.4148 115.513 99.8656 116.114 101.378 116.114C102.891 116.114 104.342 115.513 105.411 114.443C106.481 113.373 107.082 111.923 107.082 110.41V110.294V110.299V98.7533C107.078 97.2428 106.476 95.7954 105.409 94.7268C104.341 93.6582 102.894 93.0553 101.384 93.0496H101.378Z" fill="#288CC9"/>
<path d="M122.046 58.1256H111.069C109.739 53.9629 105.904 51 101.376 51C96.8473 51 93.015 53.9629 91.7042 58.0525L91.6852 58.1256H80.8519C80.0955 58.1256 79.3701 58.4261 78.8353 58.9609C78.3005 59.4958 78 60.2211 78 60.9775C78 61.7339 78.3005 62.4593 78.8353 62.9941C79.3701 63.5289 80.0955 63.8294 80.8519 63.8294H91.8288C92.5546 66.2642 94.1308 68.2575 96.2027 69.506L96.246 69.5304C88.4704 71.8785 82.8967 78.9554 82.8479 87.3431V102.315C82.8592 103.559 83.3581 104.748 84.2373 105.628C85.1165 106.508 86.3059 107.007 87.5496 107.019H91.4008V98.8942C91.4008 96.2099 92.4672 93.6356 94.3652 91.7375C96.2633 89.8394 98.8376 88.7731 101.522 88.7731C104.206 88.7731 106.78 89.8394 108.679 91.7375C110.577 93.6356 111.643 96.2099 111.643 98.8942V107.019H115.491C116.736 107.009 117.927 106.511 118.808 105.631C119.689 104.75 120.188 103.56 120.199 102.315V87.4894C120.197 83.4914 118.905 79.6008 116.514 76.3963C114.123 73.1917 110.762 70.8445 106.93 69.7038L106.8 69.6712C108.918 68.4076 110.488 66.3986 111.201 64.0379L111.22 63.9675H122.197C122.953 63.9654 123.677 63.6642 124.212 63.1298C124.746 62.5955 125.047 61.8713 125.049 61.1156C125.02 60.3318 124.695 59.588 124.141 59.0331C123.587 58.4781 122.843 58.1531 122.059 58.1229H122.054L122.046 58.1256ZM101.376 66.8167C100.248 66.8167 99.1448 66.4821 98.2068 65.8554C97.2688 65.2287 96.5378 64.3379 96.106 63.2956C95.6743 62.2534 95.5614 61.1066 95.7815 60.0002C96.0016 58.8938 96.5448 57.8774 97.3425 57.0798C98.1402 56.2821 99.1565 55.7388 100.263 55.5188C101.369 55.2987 102.516 55.4116 103.558 55.8433C104.601 56.275 105.491 57.0061 106.118 57.9441C106.745 58.8821 107.079 59.9848 107.079 61.1129L107.082 61.2754C107.082 64.3358 104.601 66.8167 101.541 66.8167L101.37 66.814H101.378L101.376 66.8167Z" fill="#288CC9"/>
</g>
<defs>
<clipPath id="clip0_46_483">
<rect width="46.0417" height="65" fill="white" transform="translate(78 51)"/>
</clipPath>
</defs>
</svg>
