<svg width="200" height="200" viewBox="0 0 200 200" fill="none" xmlns="http://www.w3.org/2000/svg">
<rect x="1" y="1" width="198" height="198" rx="29" fill="white" stroke="#288CC9" stroke-width="2"/>
<path d="M74.504 147.448H77.24V163H74.504V156.256H66.584V163H63.848V147.448H66.584V153.928H74.504V147.448ZM85.1579 163.312C84.0059 163.312 83.0379 163.064 82.2539 162.568C81.4699 162.056 80.8779 161.376 80.4779 160.528C80.0939 159.664 79.9019 158.704 79.9019 157.648C79.9019 156.32 80.1499 155.24 80.6459 154.408C81.1579 153.576 81.8379 152.976 82.6859 152.608C83.5339 152.224 84.4859 152.032 85.5419 152.032C86.7099 152.032 87.6859 152.28 88.4699 152.776C89.2539 153.256 89.8379 153.92 90.2219 154.768C90.6219 155.616 90.8219 156.584 90.8219 157.672C90.8219 158.984 90.5659 160.064 90.0539 160.912C89.5579 161.744 88.8859 162.352 88.0379 162.736C87.1899 163.12 86.2299 163.312 85.1579 163.312ZM85.3499 161.296C86.3419 161.296 87.0459 160.976 87.4619 160.336C87.8939 159.68 88.1099 158.784 88.1099 157.648C88.1099 156.512 87.8859 155.632 87.4379 155.008C87.0059 154.368 86.3339 154.048 85.4219 154.048C84.4139 154.048 83.6859 154.36 83.2379 154.984C82.8059 155.608 82.5899 156.496 82.5899 157.648C82.5899 158.768 82.8139 159.656 83.2619 160.312C83.7259 160.968 84.4219 161.296 85.3499 161.296ZM105.881 152.032C106.841 152.032 107.585 152.304 108.113 152.848C108.657 153.376 108.929 154.192 108.929 155.296V163H106.337V156.184C106.337 155.656 106.289 155.248 106.193 154.96C106.097 154.656 105.945 154.44 105.737 154.312C105.529 154.184 105.241 154.12 104.873 154.12C104.089 154.12 103.241 154.36 102.329 154.84C102.345 154.936 102.353 155.088 102.353 155.296V163H99.761V156.184C99.761 155.656 99.713 155.248 99.617 154.96C99.521 154.656 99.369 154.44 99.161 154.312C98.953 154.184 98.665 154.12 98.297 154.12C97.913 154.12 97.505 154.184 97.073 154.312C96.641 154.44 96.217 154.616 95.801 154.84V163H93.209V152.392L95.801 152.128V153.064C97.001 152.376 98.169 152.032 99.305 152.032C100.521 152.032 101.369 152.432 101.849 153.232C102.457 152.88 103.105 152.592 103.793 152.368C104.481 152.144 105.177 152.032 105.881 152.032ZM121.03 156.592C121.03 157.088 121.006 157.624 120.958 158.2H113.806C113.87 159.256 114.166 160.032 114.694 160.528C115.238 161.024 115.91 161.272 116.71 161.272C117.286 161.272 117.806 161.2 118.27 161.056C118.734 160.896 119.262 160.648 119.854 160.312L120.766 161.992C120.19 162.392 119.542 162.712 118.822 162.952C118.118 163.192 117.35 163.312 116.518 163.312C115.494 163.312 114.582 163.128 113.782 162.76C112.998 162.392 112.374 161.8 111.91 160.984C111.446 160.168 111.214 159.112 111.214 157.816C111.214 156.696 111.414 155.704 111.814 154.84C112.214 153.96 112.806 153.272 113.59 152.776C114.374 152.28 115.318 152.032 116.422 152.032C117.414 152.032 118.254 152.232 118.942 152.632C119.63 153.016 120.15 153.56 120.502 154.264C120.854 154.952 121.03 155.728 121.03 156.592ZM116.446 153.904C115.742 153.904 115.182 154.12 114.766 154.552C114.35 154.984 114.07 155.6 113.926 156.4H118.534V156.328C118.534 155.496 118.342 154.888 117.958 154.504C117.59 154.104 117.086 153.904 116.446 153.904ZM126.997 163.312C126.021 163.312 125.141 163.192 124.357 162.952C123.589 162.712 122.869 162.352 122.197 161.872L123.301 160.12C124.437 160.936 125.645 161.344 126.925 161.344C127.549 161.344 128.021 161.24 128.341 161.032C128.677 160.824 128.845 160.528 128.845 160.144C128.845 159.92 128.781 159.728 128.653 159.568C128.541 159.392 128.325 159.224 128.005 159.064C127.685 158.904 127.229 158.744 126.637 158.584L125.917 158.392C124.781 158.088 123.957 157.688 123.445 157.192C122.933 156.696 122.677 156.04 122.677 155.224C122.677 154.6 122.853 154.048 123.205 153.568C123.557 153.088 124.045 152.712 124.669 152.44C125.309 152.168 126.029 152.032 126.829 152.032C128.349 152.032 129.765 152.416 131.077 153.184L130.069 154.912C129.397 154.56 128.829 154.32 128.365 154.192C127.901 154.064 127.405 154 126.877 154C126.381 154 125.997 154.096 125.725 154.288C125.453 154.48 125.317 154.736 125.317 155.056C125.317 155.248 125.365 155.416 125.461 155.56C125.557 155.688 125.725 155.808 125.965 155.92C126.205 156.016 126.549 156.12 126.997 156.232L127.765 156.424C129.061 156.776 129.997 157.232 130.573 157.792C131.165 158.336 131.461 159.04 131.461 159.904C131.461 160.56 131.293 161.144 130.957 161.656C130.621 162.168 130.117 162.576 129.445 162.88C128.773 163.168 127.957 163.312 126.997 163.312Z" fill="#288CC9"/>
<path d="M72.7083 106.833V69.6458L97.4999 50.9175L122.292 69.6458V106.833H103.903V84.2198H91.0966V106.833H72.7083Z" fill="#288CC9"/>
</svg>
