<svg width="26" height="26" viewBox="0 0 26 26" fill="none" xmlns="http://www.w3.org/2000/svg">
<path d="M13 2.16675C7.01996 2.16675 2.16663 7.02008 2.16663 13.0001C2.16663 18.9801 7.01996 23.8334 13 23.8334C18.98 23.8334 23.8333 18.9801 23.8333 13.0001C23.8333 7.02008 18.98 2.16675 13 2.16675ZM18.0266 9.53341C17.8641 11.2451 17.16 15.4051 16.8025 17.3226C16.6508 18.1351 16.3475 18.4059 16.0658 18.4384C15.4375 18.4926 14.9608 18.0267 14.3541 17.6259C13.4008 16.9976 12.8591 16.6076 11.9383 16.0009C10.8658 15.2967 11.5591 14.9067 12.1766 14.2784C12.3391 14.1159 15.1125 11.5917 15.1666 11.3642C15.1741 11.3298 15.1731 11.294 15.1637 11.26C15.1543 11.2261 15.1367 11.1949 15.1125 11.1692C15.0475 11.1151 14.9608 11.1367 14.885 11.1476C14.7875 11.1692 13.2708 12.1767 10.3133 14.1701C9.87996 14.4626 9.48996 14.6142 9.14329 14.6034C8.75329 14.5926 8.01663 14.3867 7.46413 14.2026C6.78163 13.9859 6.25079 13.8667 6.29413 13.4876C6.31579 13.2926 6.58663 13.0976 7.09579 12.8917C10.2591 11.5159 12.3608 10.6059 13.4116 10.1726C16.4233 8.91591 17.0408 8.69925 17.4525 8.69925C17.5391 8.69925 17.745 8.72091 17.875 8.82925C17.9833 8.91591 18.0158 9.03508 18.0266 9.12175C18.0158 9.18675 18.0375 9.38175 18.0266 9.53341Z" fill="#288CC9"/>
</svg>
