<svg width="50" height="50" viewBox="0 0 50 50" fill="none" xmlns="http://www.w3.org/2000/svg">
<g clip-path="url(#clip0_46_428)">
<path d="M5.5958 21.7958C5.11201 22.2795 4.72825 22.8537 4.46642 23.4857C4.20459 24.1177 4.06982 24.7951 4.06982 25.4792C4.06982 26.1632 4.20459 26.8406 4.46642 27.4726C4.72825 28.1046 5.11201 28.6788 5.5958 29.1625L11.4895 35.0542C12.3357 35.9003 13.4473 36.4292 14.6376 36.5521C15.8279 36.675 17.0241 36.3843 18.0253 35.7288C19.0264 35.0734 19.7713 34.0932 20.1347 32.9532C20.4981 31.8131 20.4579 30.5826 20.0208 29.4687L21.6687 27.8208L35.0166 43.2208C35.5401 43.8242 36.1822 44.3134 36.9029 44.6578C37.6237 45.0022 38.4076 45.1946 39.2059 45.2229C40.0042 45.2511 40.7998 45.1147 41.5431 44.8222C42.2864 44.5296 42.9615 44.0871 43.5264 43.5222C44.0912 42.9574 44.5337 42.2823 44.8263 41.539C45.1189 40.7957 45.2553 40.0001 45.227 39.2018C45.1987 38.4035 45.0064 37.6195 44.6619 36.8988C44.3175 36.1781 43.8284 35.536 43.225 35.0125L27.825 21.6646L29.4729 20.0187C30.5871 20.4569 31.8184 20.4978 32.9592 20.1345C34.1001 19.7712 35.081 19.0259 35.7367 18.0241C36.3924 17.0223 36.683 15.8251 36.5594 14.6342C36.4358 13.4433 35.9057 12.3313 35.0583 11.4854L29.1666 5.59166C28.3205 4.74554 27.2088 4.21657 26.0186 4.0937C24.8283 3.97083 23.632 4.26156 22.6309 4.91699C21.6298 5.57243 20.8849 6.55259 20.5215 7.69267C20.158 8.83274 20.1983 10.0632 20.6354 11.1771L11.1833 20.6292C10.2395 20.2586 9.20803 20.1717 8.21549 20.3789C7.22295 20.5861 6.31249 21.0786 5.5958 21.7958Z" fill="white"/>
</g>
<defs>
<clipPath id="clip0_46_428">
<rect width="50" height="50" fill="white"/>
</clipPath>
</defs>
</svg>
