<svg width="200" height="200" viewBox="0 0 200 200" fill="none" xmlns="http://www.w3.org/2000/svg">
<rect x="1" y="1" width="198" height="198" rx="29" fill="white" stroke="#288CC9" stroke-width="2"/>
<path d="M72.472 163.312C70.872 163.312 69.512 162.976 68.392 162.304C67.272 161.616 66.424 160.664 65.848 159.448C65.288 158.216 65.008 156.792 65.008 155.176C65.008 153.384 65.352 151.888 66.04 150.688C66.728 149.472 67.648 148.576 68.8 148C69.952 147.424 71.232 147.136 72.64 147.136C74.24 147.136 75.6 147.48 76.72 148.168C77.84 148.84 78.68 149.792 79.24 151.024C79.8 152.24 80.08 153.656 80.08 155.272C80.08 157.064 79.736 158.568 79.048 159.784C78.36 160.984 77.44 161.872 76.288 162.448C75.152 163.024 73.88 163.312 72.472 163.312ZM72.472 161.032C73.512 161.032 74.392 160.792 75.112 160.312C75.832 159.832 76.368 159.168 76.72 158.32C77.072 157.456 77.248 156.448 77.248 155.296C77.248 154.112 77.08 153.08 76.744 152.2C76.408 151.32 75.896 150.64 75.208 150.16C74.52 149.664 73.664 149.416 72.64 149.416C71.584 149.416 70.696 149.656 69.976 150.136C69.256 150.616 68.72 151.288 68.368 152.152C68.016 153 67.84 154 67.84 155.152C67.84 156.96 68.232 158.392 69.016 159.448C69.8 160.504 70.952 161.032 72.472 161.032ZM87.5179 148.48C86.9899 148.48 86.5819 148.664 86.2939 149.032C86.0059 149.384 85.8619 149.88 85.8619 150.52V152.368H88.9099L88.6459 154.408H85.8619V163H83.2699V154.408H81.4939V152.368H83.2699V150.568C83.2699 149.736 83.4219 149 83.7259 148.36C84.0459 147.72 84.5099 147.224 85.1179 146.872C85.7259 146.504 86.4539 146.32 87.3019 146.32C88.2459 146.32 89.0939 146.472 89.8459 146.776L89.1979 148.816C88.6539 148.592 88.0939 148.48 87.5179 148.48ZM95.4398 148.528C94.8958 148.528 94.4798 148.696 94.1918 149.032C93.9198 149.352 93.7838 149.832 93.7838 150.472V152.368H96.7598L96.4958 154.408H93.7838V163H91.1918V154.408H89.4158V152.368H91.1918V150.52C91.1918 149.688 91.3438 148.96 91.6478 148.336C91.9678 147.712 92.4318 147.224 93.0398 146.872C93.6478 146.52 94.3758 146.344 95.2238 146.344C96.0558 146.344 96.8318 146.512 97.5518 146.848L96.7358 148.816C96.3678 148.624 95.9358 148.528 95.4398 148.528ZM99.8318 150.448C99.5278 150.448 99.2398 150.376 98.9678 150.232C98.7118 150.072 98.5038 149.864 98.3438 149.608C98.1838 149.336 98.1038 149.048 98.1038 148.744C98.1038 148.44 98.1838 148.16 98.3438 147.904C98.5038 147.632 98.7118 147.416 98.9678 147.256C99.2398 147.096 99.5278 147.016 99.8318 147.016C100.152 147.016 100.448 147.096 100.72 147.256C100.992 147.416 101.208 147.632 101.368 147.904C101.528 148.16 101.608 148.44 101.608 148.744C101.608 149.048 101.528 149.336 101.368 149.608C101.208 149.864 100.992 150.072 100.72 150.232C100.448 150.376 100.152 150.448 99.8318 150.448ZM98.5838 163V152.392L101.176 152.128V163H98.5838ZM108.718 163.312C107.198 163.312 105.958 162.896 104.998 162.064C104.054 161.216 103.582 159.84 103.582 157.936C103.582 156.592 103.846 155.48 104.374 154.6C104.902 153.704 105.582 153.056 106.414 152.656C107.246 152.24 108.126 152.032 109.054 152.032C109.646 152.032 110.214 152.112 110.758 152.272C111.302 152.416 111.894 152.656 112.534 152.992L111.598 154.816C111.07 154.56 110.614 154.384 110.23 154.288C109.846 154.176 109.454 154.12 109.054 154.12C108.19 154.12 107.51 154.448 107.014 155.104C106.518 155.76 106.27 156.696 106.27 157.912C106.27 160.088 107.19 161.176 109.03 161.176C109.526 161.176 109.982 161.096 110.398 160.936C110.83 160.776 111.294 160.552 111.79 160.264L112.75 162.016C112.142 162.4 111.51 162.712 110.854 162.952C110.198 163.192 109.486 163.312 108.718 163.312ZM123.71 156.592C123.71 157.088 123.686 157.624 123.638 158.2H116.486C116.55 159.256 116.846 160.032 117.374 160.528C117.918 161.024 118.59 161.272 119.39 161.272C119.966 161.272 120.486 161.2 120.95 161.056C121.414 160.896 121.942 160.648 122.534 160.312L123.446 161.992C122.87 162.392 122.222 162.712 121.502 162.952C120.798 163.192 120.03 163.312 119.198 163.312C118.174 163.312 117.262 163.128 116.462 162.76C115.678 162.392 115.054 161.8 114.59 160.984C114.126 160.168 113.894 159.112 113.894 157.816C113.894 156.696 114.094 155.704 114.494 154.84C114.894 153.96 115.486 153.272 116.27 152.776C117.054 152.28 117.998 152.032 119.102 152.032C120.094 152.032 120.934 152.232 121.622 152.632C122.31 153.016 122.83 153.56 123.182 154.264C123.534 154.952 123.71 155.728 123.71 156.592ZM119.126 153.904C118.422 153.904 117.862 154.12 117.446 154.552C117.03 154.984 116.75 155.6 116.606 156.4H121.214V156.328C121.214 155.496 121.022 154.888 120.638 154.504C120.27 154.104 119.766 153.904 119.126 153.904ZM129.676 163.312C128.7 163.312 127.82 163.192 127.036 162.952C126.268 162.712 125.548 162.352 124.876 161.872L125.98 160.12C127.116 160.936 128.324 161.344 129.604 161.344C130.228 161.344 130.7 161.24 131.02 161.032C131.356 160.824 131.524 160.528 131.524 160.144C131.524 159.92 131.46 159.728 131.332 159.568C131.22 159.392 131.004 159.224 130.684 159.064C130.364 158.904 129.908 158.744 129.316 158.584L128.596 158.392C127.46 158.088 126.636 157.688 126.124 157.192C125.612 156.696 125.356 156.04 125.356 155.224C125.356 154.6 125.532 154.048 125.884 153.568C126.236 153.088 126.724 152.712 127.348 152.44C127.988 152.168 128.708 152.032 129.508 152.032C131.028 152.032 132.444 152.416 133.756 153.184L132.748 154.912C132.076 154.56 131.508 154.32 131.044 154.192C130.58 154.064 130.084 154 129.556 154C129.06 154 128.676 154.096 128.404 154.288C128.132 154.48 127.996 154.736 127.996 155.056C127.996 155.248 128.044 155.416 128.14 155.56C128.236 155.688 128.404 155.808 128.644 155.92C128.884 156.016 129.228 156.12 129.676 156.232L130.444 156.424C131.74 156.776 132.676 157.232 133.252 157.792C133.844 158.336 134.14 159.04 134.14 159.904C134.14 160.56 133.972 161.144 133.636 161.656C133.3 162.168 132.796 162.576 132.124 162.88C131.452 163.168 130.636 163.312 129.676 163.312Z" fill="#288CC9"/>
<g clip-path="url(#clip0_46_494)">
<path d="M65 114H100V44H65V114ZM86.875 52.75H95.625V61.5H86.875V52.75ZM86.875 70.25H95.625V79H86.875V70.25ZM86.875 87.75H95.625V96.5H86.875V87.75ZM69.375 52.75H78.125V61.5H69.375V52.75ZM69.375 70.25H78.125V79H69.375V70.25ZM69.375 87.75H78.125V96.5H69.375V87.75ZM104.375 65.875H135V70.25H104.375V65.875ZM104.375 114H113.125V96.5H126.25V114H135V74.625H104.375V114Z" fill="#288CC9"/>
</g>
<defs>
<clipPath id="clip0_46_494">
<rect width="70" height="70" fill="white" transform="translate(65 44)"/>
</clipPath>
</defs>
</svg>
