<svg width="200" height="200" viewBox="0 0 200 200" fill="none" xmlns="http://www.w3.org/2000/svg">
<rect x="1" y="1" width="198" height="198" rx="29" fill="white" stroke="#288CC9" stroke-width="2"/>
<path d="M80.152 147.448C81.448 147.448 82.536 147.656 83.416 148.072C84.296 148.472 84.952 149.04 85.384 149.776C85.832 150.496 86.056 151.336 86.056 152.296C86.056 153.288 85.832 154.176 85.384 154.96C84.936 155.744 84.256 156.368 83.344 156.832C82.432 157.28 81.32 157.504 80.008 157.504H77.584V163H74.848V147.448H80.152ZM79.768 155.248C82.072 155.248 83.224 154.296 83.224 152.392C83.224 151.512 82.96 150.848 82.432 150.4C81.904 149.936 81.128 149.704 80.104 149.704H77.584V155.248H79.768ZM88.2481 163V146.488L90.8401 146.224V163H88.2481ZM98.4783 163.312C97.3263 163.312 96.3583 163.064 95.5742 162.568C94.7903 162.056 94.1983 161.376 93.7983 160.528C93.4143 159.664 93.2223 158.704 93.2223 157.648C93.2223 156.32 93.4703 155.24 93.9663 154.408C94.4783 153.576 95.1583 152.976 96.0063 152.608C96.8543 152.224 97.8063 152.032 98.8623 152.032C100.03 152.032 101.006 152.28 101.79 152.776C102.574 153.256 103.158 153.92 103.542 154.768C103.942 155.616 104.142 156.584 104.142 157.672C104.142 158.984 103.886 160.064 103.374 160.912C102.878 161.744 102.206 162.352 101.358 162.736C100.51 163.12 99.5503 163.312 98.4783 163.312ZM98.6703 161.296C99.6623 161.296 100.366 160.976 100.782 160.336C101.214 159.68 101.43 158.784 101.43 157.648C101.43 156.512 101.206 155.632 100.758 155.008C100.326 154.368 99.6543 154.048 98.7422 154.048C97.7343 154.048 97.0063 154.36 96.5583 154.984C96.1263 155.608 95.9103 156.496 95.9103 157.648C95.9103 158.768 96.1343 159.656 96.5823 160.312C97.0463 160.968 97.7423 161.296 98.6703 161.296ZM113.277 162.592C112.349 163.072 111.389 163.312 110.397 163.312C109.773 163.312 109.213 163.192 108.717 162.952C108.221 162.712 107.829 162.336 107.541 161.824C107.253 161.312 107.109 160.672 107.109 159.904V154.408H105.069V152.368H107.109V149.968L109.701 149.584V152.368H113.013L112.749 154.408H109.701V159.496C109.701 160.088 109.805 160.52 110.013 160.792C110.237 161.064 110.557 161.2 110.973 161.2C111.213 161.2 111.453 161.168 111.693 161.104C111.933 161.04 112.221 160.944 112.557 160.816L113.277 162.592ZM118.754 163.312C117.778 163.312 116.898 163.192 116.114 162.952C115.346 162.712 114.626 162.352 113.954 161.872L115.058 160.12C116.194 160.936 117.402 161.344 118.682 161.344C119.306 161.344 119.778 161.24 120.098 161.032C120.434 160.824 120.602 160.528 120.602 160.144C120.602 159.92 120.538 159.728 120.41 159.568C120.298 159.392 120.082 159.224 119.762 159.064C119.442 158.904 118.986 158.744 118.394 158.584L117.674 158.392C116.538 158.088 115.714 157.688 115.202 157.192C114.69 156.696 114.434 156.04 114.434 155.224C114.434 154.6 114.61 154.048 114.962 153.568C115.314 153.088 115.802 152.712 116.426 152.44C117.066 152.168 117.786 152.032 118.586 152.032C120.106 152.032 121.522 152.416 122.834 153.184L121.826 154.912C121.154 154.56 120.586 154.32 120.122 154.192C119.658 154.064 119.162 154 118.634 154C118.138 154 117.754 154.096 117.482 154.288C117.21 154.48 117.074 154.736 117.074 155.056C117.074 155.248 117.122 155.416 117.218 155.56C117.314 155.688 117.482 155.808 117.722 155.92C117.962 156.016 118.306 156.12 118.754 156.232L119.522 156.424C120.818 156.776 121.754 157.232 122.33 157.792C122.922 158.336 123.218 159.04 123.218 159.904C123.218 160.56 123.05 161.144 122.714 161.656C122.378 162.168 121.874 162.576 121.202 162.88C120.53 163.168 119.714 163.312 118.754 163.312Z" fill="#288CC9"/>
<g clip-path="url(#clip0_46_470)">
<path d="M128.667 54.4166H70.3333C69.2282 54.4166 68.1684 54.8556 67.387 55.637C66.6056 56.4184 66.1666 57.4782 66.1666 58.5833V104.417C66.1666 105.522 66.6056 106.582 67.387 107.363C68.1684 108.144 69.2282 108.583 70.3333 108.583H128.667C129.772 108.583 130.832 108.144 131.613 107.363C132.394 106.582 132.833 105.522 132.833 104.417V58.5833C132.833 57.4782 132.394 56.4184 131.613 55.637C130.832 54.8556 129.772 54.4166 128.667 54.4166ZM70.3333 104.417V58.5833H128.667V104.417H70.3333Z" fill="#288CC9"/>
<path d="M76.5834 69H97.4167V98.1667H76.5834V69ZM79.9167 94.8333H94.0834V83.1667H79.9167V94.8333ZM94.0834 72.3333H79.9167V79.8333H94.0834V72.3333Z" fill="#288CC9"/>
<path d="M101.583 94H122.417V64.8334H101.583V94ZM104.917 68.1667H119.083V79.8334H104.917V68.1667ZM119.083 90.6667H104.917V83.1667H119.083V90.6667Z" fill="#288CC9"/>
</g>
<defs>
<clipPath id="clip0_46_470">
<rect width="75" height="75" fill="white" transform="translate(62 44)"/>
</clipPath>
</defs>
</svg>
