<svg
  width="102"
  height="49"
  viewBox="0 0 444 216"
  fill="none"
  xmlns="http://www.w3.org/2000/svg"
>
  <path
    d="M116.311 39.5592L146.568 120.708V121.594H131.376L123.653 99.8184H90.7369L83.1409 121.594H68.3281V120.708L98.4577 39.5592H116.309H116.311ZM94.7905 88.1736H119.477L107.071 52.98L94.7905 88.1736Z"
    fill="#0B7ABF"
  />
  <path
    d="M197.222 64.2456V121.594H185.323L184.31 117.29C177.727 121.258 171.101 123.24 164.433 123.24C159.115 123.24 154.874 121.721 151.711 118.682C148.545 115.644 146.964 111.298 146.964 105.643V65.6376L160.637 64.2456V101.592C160.637 104.124 160.91 106.15 161.46 107.669C162.007 109.188 162.957 110.306 164.309 111.024C165.657 111.742 167.515 112.099 169.879 112.099C173.592 112.099 178.149 110.664 183.552 107.796V65.6376L197.225 64.2456H197.222Z"
    fill="#0B7ABF"
  />
  <path
    d="M208.529 116.594C203.506 112.164 200.998 104.928 200.998 94.8816C200.998 87.792 202.39 81.9048 205.176 77.22C207.96 72.5352 211.548 69.1176 215.938 66.9648C220.325 64.812 224.969 63.7368 229.865 63.7368C232.987 63.7368 235.982 64.1376 238.853 64.9392C241.721 65.7432 244.846 67.0272 248.222 68.8008L243.286 78.4224C240.502 77.0736 238.094 76.1232 236.069 75.5736C234.043 75.0264 231.974 74.7504 229.865 74.7504C225.307 74.7504 221.719 76.4808 219.103 79.9416C216.487 83.4024 215.179 88.3416 215.179 94.7544C215.179 106.234 220.032 111.972 229.738 111.972C232.354 111.972 234.78 111.55 237.017 110.707C239.251 109.865 241.68 108.682 244.296 107.162L249.36 116.405C246.151 118.43 242.818 120.077 239.359 121.342C235.898 122.606 232.142 123.24 228.091 123.24C220.073 123.24 213.552 121.025 208.531 116.594H208.529Z"
    fill="#0B7ABF"
  />
  <path
    d="M294.823 119.443C289.927 121.975 284.863 123.242 279.631 123.242C276.341 123.242 273.384 122.609 270.77 121.344C268.154 120.077 266.086 118.097 264.566 115.394C263.047 112.694 262.286 109.318 262.286 105.266V76.2744H251.525V65.5128H262.286V52.8528L275.959 50.8272V65.5128H293.429L292.037 76.2744H275.959V103.114C275.959 106.238 276.528 108.516 277.668 109.949C278.808 111.384 280.474 112.102 282.67 112.102C283.937 112.102 285.202 111.934 286.466 111.595C287.734 111.259 289.25 110.753 291.024 110.076L294.823 119.443Z"
    fill="#0B7ABF"
  />
  <path
    d="M301.258 54.1824C299.866 53.3808 298.745 52.284 297.902 50.8896C297.058 49.4976 296.635 48 296.635 46.3944C296.635 44.7888 297.058 43.2936 297.902 41.8992C298.745 40.5072 299.866 39.3888 301.258 38.544C302.65 37.7016 304.147 37.2792 305.753 37.2792C307.44 37.2792 309 37.7016 310.438 38.544C311.873 39.3888 313.01 40.5072 313.855 41.8992C314.698 43.2912 315.122 44.7912 315.122 46.3944C315.122 47.9976 314.7 49.4952 313.855 50.8896C313.01 52.2816 311.87 53.3808 310.438 54.1824C309.002 54.9864 307.44 55.3848 305.753 55.3848C304.066 55.3848 302.652 54.984 301.258 54.1824ZM299.167 121.596V65.64L312.84 64.248V121.596H299.167Z"
    fill="#0B7ABF"
  />
  <path
    d="M328.692 119.254C324.554 116.594 321.454 113.009 319.387 108.492C317.318 103.978 316.286 98.9352 316.286 93.3648C316.286 86.3592 317.616 80.664 320.275 76.2744C322.934 71.8872 326.498 68.7 330.972 66.7176C335.446 64.7352 340.466 63.7416 346.037 63.7416C352.198 63.7416 357.346 65.0304 361.481 67.6032C365.616 70.1784 368.717 73.7016 370.786 78.1728C372.852 82.6464 373.886 87.7536 373.886 93.492C373.886 100.414 372.557 106.09 369.898 110.52C367.238 114.95 363.672 118.178 359.201 120.204C354.727 122.23 349.663 123.242 344.009 123.242C337.932 123.242 332.825 121.913 328.69 119.254H328.692ZM356.338 107.479C358.584 104.062 359.71 99.3576 359.71 93.3648C359.71 87.372 358.543 82.7112 356.213 79.3752C353.882 76.0416 350.299 74.3736 345.47 74.3736C340.13 74.3736 336.293 76.02 333.962 79.3104C331.632 82.6032 330.468 87.2856 330.468 93.3624C330.468 99.4392 331.675 103.956 334.092 107.414C336.506 110.875 340.174 112.606 345.091 112.606C350.345 112.606 354.096 110.897 356.342 107.479H356.338Z"
    fill="#0B7ABF"
  />
  <path
    d="M423.768 67.98C426.763 70.8096 428.263 75.2184 428.263 81.2088V121.594H414.59V85.6392C414.59 82.8528 414.314 80.6808 413.767 79.1184C413.218 77.5584 412.289 76.44 410.983 75.7632C409.673 75.0888 407.882 74.7504 405.602 74.7504C401.299 74.7504 396.528 76.0608 391.296 78.6744V121.591H377.623V65.6352L391.296 64.2432V69.6864C398.131 65.7216 404.714 63.7368 411.046 63.7368C416.53 63.7368 420.773 65.1504 423.768 67.9776V67.98Z"
    fill="#0B7ABF"
  />
  <path
    d="M67.6992 82.4736C67.6992 77.1096 66.6048 72.2688 64.4232 67.9488C62.2368 63.6288 59.0088 60.252 54.7392 57.8184C50.4672 55.3848 45.2544 54.168 39.096 54.168C32.244 54.168 26.3808 55.7088 21.516 58.7856C16.6488 61.8648 12.972 66.1104 10.4904 71.5224C8.00642 76.9368 6.76562 83.1192 6.76562 90.0696C6.76562 98.1144 8.20322 104.669 11.0856 109.735C13.9656 114.802 17.8632 118.476 22.7808 120.761C27.696 123.043 33.3336 124.188 39.6912 124.188C44.8536 124.188 49.6464 123.442 54.0672 121.954C58.4856 120.463 62.484 118.478 66.06 115.994L60.3984 105.566C56.724 107.652 53.4456 109.166 50.5656 110.11C47.6832 111.055 44.4576 111.526 40.8816 111.526C35.9136 111.526 31.7688 109.987 28.4424 106.908C25.6848 104.359 23.9376 100.608 23.1912 95.6712C23.1864 95.6424 23.1792 95.616 23.1768 95.5872C23.1648 95.5056 23.1576 95.4264 23.1456 95.3472C23.016 94.4232 22.9152 93.4632 22.8552 92.4576H22.86C22.32 84.2592 24.2208 78.4656 24.2208 78.4656H24.2328C25.1976 74.8536 26.6832 71.9616 28.7064 69.8136C31.236 67.1328 34.6416 65.7912 38.9184 65.7912C42.8088 65.7912 45.8952 67.008 48.18 69.4416C50.28 71.6784 51.4128 75.0696 51.5832 79.6104H51.6096V92.46H67.2528C67.5504 88.884 67.6992 85.5576 67.6992 82.4784V82.4736Z"
    fill="#222D64"
  />
  <path
    d="M39.0767 84.6623C38.9567 85.1783 38.8703 85.6991 38.7959 86.2151C38.5079 88.1423 38.4887 90.1127 38.7455 92.0639C38.8103 92.5871 38.8991 93.1127 39.0119 93.6335L29.9207 93.5591C30.5783 90.6215 30.6071 87.5495 29.9975 84.5903L39.0743 84.6599L39.0767 84.6623Z"
    fill="#222D64"
  />
  <path
    d="M41.2462 79.9368L41.2198 83.304C41.2198 83.532 41.119 83.7432 40.9462 83.8896C40.807 84.0096 40.6246 84.0792 40.435 84.0768L28.651 83.988C28.4446 83.9856 28.2502 83.9016 28.1014 83.7552C27.9574 83.604 27.8758 83.4096 27.8782 83.2032L27.9046 79.836C27.9118 79.4232 28.2766 79.056 28.6894 79.0632L40.4734 79.152C40.9078 79.1568 41.251 79.512 41.2462 79.9368Z"
    fill="#222D64"
  />
  <path
    d="M40.3631 94.236C40.5695 94.2384 40.7615 94.3176 40.9055 94.4664C41.0543 94.6128 41.1359 94.8096 41.1335 95.0136L41.1071 98.3808C41.1023 98.604 41.0063 98.82 40.8335 98.9664C40.6943 99.0864 40.5071 99.1512 40.3223 99.1536L28.5335 99.06C28.1087 99.0576 27.7607 98.7048 27.7607 98.2752L27.7895 94.9128C27.7895 94.5048 28.1615 94.1424 28.5743 94.14L40.3631 94.2336V94.236Z"
    fill="#222D64"
  />
  <path d="M55.4425 85.7664H39.9385V92.4552H55.4425V85.7664Z" fill="#222D64" />
  <path
    d="M39.6384 85.7664C39.6384 85.7664 39.048 89.5536 39.6384 92.4552H39.9384V85.7664H39.6384Z"
    fill="#222D64"
  />
  <path
    d="M425.218 131.988H312.739C308.637 131.988 305.311 135.314 305.311 139.416V177.775C305.311 181.878 308.637 185.203 312.739 185.203H425.218C429.32 185.203 432.646 181.878 432.646 177.775V139.416C432.646 135.314 429.32 131.988 425.218 131.988Z"
    fill="#222D64"
  />
  <path
    d="M347.189 143.047V173.532H341.119L329.666 156.221C329.513 155.971 329.213 155.508 328.769 154.834C328.325 154.159 327.926 153.516 327.574 152.904C327.221 152.292 326.906 151.673 326.63 151.046V173.534H321.266V143.05H327.146L339.156 161.208C339.31 161.429 339.586 161.844 339.984 162.456C340.382 163.068 340.735 163.632 341.042 164.15C341.35 164.669 341.609 165.178 341.825 165.679V143.052H347.189V143.047Z"
    fill="white"
  />
  <path
    d="M368.664 164.122H354.646C354.77 166.193 355.358 167.714 356.41 168.684C357.461 169.656 358.769 170.143 360.338 170.143C361.466 170.143 362.486 169.994 363.396 169.697C364.306 169.399 365.34 168.922 366.502 168.262L368.29 171.554C367.162 172.339 365.897 172.966 364.502 173.436C363.106 173.906 361.594 174.142 359.962 174.142C357.955 174.142 356.174 173.782 354.622 173.059C353.069 172.339 351.838 171.178 350.928 169.577C350.018 167.978 349.565 165.907 349.565 163.368C349.565 161.172 349.956 159.221 350.741 157.512C351.526 155.803 352.685 154.462 354.223 153.49C355.759 152.518 357.61 152.03 359.774 152.03C361.718 152.03 363.365 152.414 364.714 153.182C366.062 153.95 367.082 155.018 367.771 156.382C368.46 157.745 368.806 159.276 368.806 160.968C368.806 161.94 368.758 162.991 368.664 164.119V164.122ZM356.491 156.972C355.692 157.819 355.157 159.026 354.878 160.594H363.722V160.452C363.722 158.822 363.362 157.622 362.64 156.852C361.918 156.084 360.943 155.7 359.714 155.7C358.363 155.7 357.288 156.122 356.489 156.97L356.491 156.972Z"
    fill="white"
  />
  <path
    d="M400.33 152.69V152.974L394.166 173.532H389.321L385.886 161.959C385.416 160.361 385.102 159.074 384.946 158.102C384.756 159.326 384.458 160.613 384.053 161.959L380.76 173.58H375.914L369.329 152.974V152.69H374.832L377.89 164.311C378.139 165.252 378.36 166.334 378.547 167.556C378.893 165.958 379.142 164.875 379.301 164.311L382.548 152.69H387.677L390.97 164.17C391.346 165.581 391.627 166.836 391.817 167.933C391.942 166.74 392.146 165.487 392.429 164.17L395.206 152.69H400.334H400.33Z"
    fill="white"
  />
  <path
    d="M404.99 173.436C403.469 172.966 402.05 172.26 400.733 171.319L402.905 167.885C405.139 169.483 407.515 170.285 410.033 170.285C411.262 170.285 412.195 170.081 412.841 169.673C413.486 169.265 413.808 168.684 413.808 167.933C413.808 167.494 413.69 167.11 413.453 166.781C413.215 166.452 412.783 166.13 412.154 165.816C411.526 165.504 410.628 165.19 409.462 164.875L408.046 164.498C405.809 163.903 404.189 163.118 403.181 162.146C402.173 161.174 401.669 159.888 401.669 158.29C401.669 157.066 402.014 155.983 402.703 155.045C403.392 154.104 404.357 153.367 405.595 152.834C406.834 152.302 408.238 152.035 409.805 152.035C412.783 152.035 415.56 152.789 418.13 154.294L416.138 157.68C414.809 156.991 413.688 156.521 412.769 156.269C411.852 156.019 410.87 155.892 409.829 155.892C408.847 155.892 408.089 156.079 407.551 156.456C407.014 156.833 406.745 157.334 406.745 157.961C406.745 158.338 406.838 158.659 407.03 158.926C407.22 159.192 407.551 159.427 408.026 159.631C408.502 159.835 409.181 160.046 410.066 160.267L411.583 160.644C414.144 161.335 415.999 162.221 417.154 163.303C418.306 164.386 418.884 165.773 418.884 167.467C418.884 168.754 418.555 169.898 417.895 170.902C417.238 171.905 416.249 172.697 414.931 173.278C413.614 173.858 412.015 174.149 410.134 174.149C408.252 174.149 406.502 173.914 404.983 173.443L404.99 173.436Z"
    fill="white"
  />
</svg>
